<?xml version="1.0" standalone="no"?>
<!DOCTYPE svg PUBLIC "-//W3C//DTD SVG 20010904//EN"
 "http://www.w3.org/TR/2001/REC-SVG-20010904/DTD/svg10.dtd">
<svg version="1.0" xmlns="http://www.w3.org/2000/svg"
 width="2000.000000pt" height="2000.000000pt" viewBox="0 0 2000.000000 2000.000000"
 preserveAspectRatio="xMidYMid meet">
<metadata>
Created by potrace 1.14, written by Peter Selinger 2001-2017
</metadata>
<g transform="translate(0.000000,2000.000000) scale(0.100000,-0.100000)"
fill="#000000" stroke="none">
<path d="M9309 19238 c-1 -2 -2 -88 -4 -193 -1 -104 -5 -203 -9 -220 -3 -16
-8 -73 -11 -125 -3 -52 -7 -117 -9 -145 -3 -27 -7 -90 -11 -140 -3 -49 -8
-115 -10 -145 -2 -30 -7 -93 -11 -140 -6 -74 -35 -287 -45 -330 -3 -11 6 -15
36 -15 22 -1 47 -5 55 -10 8 -5 87 -12 175 -16 88 -4 171 -10 185 -13 14 -3
63 -6 110 -7 47 -1 90 -5 95 -9 16 -13 67 -18 100 -9 17 5 46 11 65 14 180 30
270 74 385 190 140 140 209 291 223 490 16 230 0 343 -62 449 -69 115 -124
164 -266 234 -107 53 -137 63 -210 72 -47 6 -96 13 -110 16 -14 3 -65 7 -115
10 -49 2 -116 6 -148 8 -32 1 -60 -1 -63 -5 -2 -5 -17 -4 -32 2 -15 6 -81 13
-147 16 -66 3 -128 9 -137 14 -17 9 -27 11 -29 7z m569 -162 c6 -3 33 -11 61
-16 59 -11 176 -75 226 -122 19 -18 55 -73 82 -123 l47 -90 0 -135 c1 -192
-11 -291 -49 -402 -37 -108 -116 -228 -150 -228 -7 0 -18 -6 -24 -14 -19 -23
-136 -76 -192 -86 -68 -13 -215 -13 -240 0 -10 6 -35 11 -55 12 l-35 1 5 141
c3 78 7 150 9 161 3 11 8 63 12 115 4 52 8 115 10 140 2 25 7 88 10 140 4 52
8 113 10 135 2 22 7 110 10 195 6 128 10 158 24 170 13 11 42 15 122 14 58 0
111 -4 117 -8z"/>
<path d="M8209 19184 c-30 -17 -64 -18 -89 -2 -10 7 -21 10 -24 7 -3 -3 -19
-61 -36 -130 -17 -68 -44 -163 -60 -211 -27 -78 -43 -140 -56 -207 -3 -13 -11
-35 -18 -50 -29 -57 -107 -293 -136 -411 -18 -69 -45 -156 -62 -194 -36 -82
-63 -162 -78 -231 -6 -27 -13 -58 -16 -67 -5 -16 4 -18 94 -18 l99 0 17 98 c9
53 34 153 54 221 l37 124 45 13 c25 8 81 14 125 14 44 0 105 6 135 13 30 7 84
12 120 12 l65 0 32 -65 c79 -163 118 -249 133 -300 12 -38 21 -54 31 -51 8 2
59 7 114 10 55 4 105 10 112 14 7 4 42 8 79 8 l66 1 -19 21 c-38 43 -67 96
-211 377 -216 424 -306 605 -357 715 -67 148 -145 293 -160 298 -6 3 -22 -1
-36 -9z m-45 -461 c11 -15 37 -68 56 -118 19 -49 48 -111 63 -136 28 -47 77
-164 77 -183 0 -7 -36 -11 -98 -12 -53 0 -128 -4 -167 -8 -38 -4 -79 -8 -90
-9 -11 -1 -19 3 -19 8 9 58 73 287 98 350 18 44 36 92 40 108 8 34 13 34 40 0z"/>
<path d="M6597 18941 c-15 -5 -49 -12 -75 -16 -58 -8 -279 -63 -303 -76 -10
-5 -34 -11 -53 -14 -20 -2 -51 -7 -68 -10 -18 -3 -40 -7 -48 -8 -8 -2 -20 -6
-26 -10 -7 -4 -29 -9 -50 -12 -22 -3 -58 -10 -81 -16 -38 -10 -41 -13 -32 -31
10 -19 46 -116 54 -148 26 -94 79 -314 104 -430 110 -500 141 -643 151 -712
16 -98 25 -113 61 -94 15 7 42 16 60 19 19 2 75 12 124 22 50 9 99 17 110 18
11 0 25 5 32 10 7 5 29 10 50 12 21 2 76 13 123 24 47 12 94 23 104 26 48 11
97 31 171 68 100 50 262 202 300 284 57 120 97 357 77 458 -19 97 -62 251 -86
312 -63 162 -194 271 -366 308 -96 20 -291 29 -333 16z m143 -186 c55 -22 87
-43 123 -80 92 -95 149 -204 176 -335 6 -30 14 -66 17 -80 3 -14 7 -83 9 -155
4 -114 1 -138 -19 -200 -61 -189 -169 -273 -426 -335 -19 -5 -54 -13 -76 -19
-59 -16 -64 -14 -64 18 0 16 -4 41 -9 54 -5 13 -12 47 -15 74 -3 28 -17 86
-31 130 -20 61 -117 466 -141 593 -3 14 -10 45 -15 70 -6 25 -13 56 -15 70 -5
32 -24 119 -31 142 -4 17 18 31 67 43 8 3 42 13 75 24 49 16 83 20 180 18 107
-2 128 -5 195 -32z"/>
<path d="M12259 18682 c-52 -61 -101 -119 -110 -131 -8 -11 -33 -40 -55 -63
-21 -24 -51 -59 -66 -80 -15 -20 -34 -42 -41 -50 -7 -7 -28 -39 -46 -71 -18
-31 -38 -63 -44 -70 -7 -6 -21 -24 -32 -38 -21 -28 -197 -240 -269 -324 -23
-27 -68 -85 -99 -127 -31 -42 -78 -97 -104 -121 l-47 -45 36 -15 c20 -9 45
-14 55 -12 10 1 24 -2 32 -8 7 -6 28 -17 47 -23 31 -11 35 -10 50 15 20 31 94
131 111 149 7 7 40 55 74 108 47 71 67 93 78 88 9 -4 34 -10 56 -14 47 -9 116
-29 130 -38 6 -4 15 -7 21 -8 7 -1 40 -12 75 -25 35 -12 89 -27 119 -33 l55
-11 3 -70 c1 -38 7 -94 12 -124 6 -30 10 -102 10 -161 l0 -106 35 -13 c19 -7
48 -14 63 -17 15 -2 36 -8 47 -13 43 -18 175 -54 180 -49 4 3 -1 43 -9 89 -9
46 -18 120 -21 164 -3 44 -8 91 -10 105 -3 14 -7 41 -10 60 -3 19 -7 46 -10
60 -5 29 -15 143 -21 239 -2 36 -6 80 -8 96 -2 17 -7 66 -11 110 -3 44 -8 94
-10 110 -2 17 -6 62 -10 100 -4 39 -9 79 -12 90 -2 11 -6 92 -9 180 -7 180 -9
185 -79 185 -23 0 -46 5 -52 11 -8 8 -37 -20 -104 -99z m-25 -357 c4 -33 7
-85 7 -115 0 -30 5 -82 10 -116 11 -64 18 -191 11 -210 -2 -8 -26 -6 -80 8
-76 19 -272 87 -272 94 0 8 82 122 115 159 36 40 41 48 60 77 40 63 131 176
136 170 4 -4 10 -34 13 -67z"/>
<path d="M5220 18537 c-14 -6 -71 -33 -127 -59 -57 -26 -112 -48 -122 -48 -11
0 -23 -5 -26 -10 -4 -6 25 -83 63 -173 39 -89 87 -207 107 -262 20 -55 52
-136 70 -180 92 -220 115 -277 149 -365 21 -52 47 -117 58 -145 11 -27 34 -89
50 -137 20 -57 36 -88 45 -88 22 0 144 50 175 71 14 11 31 19 37 19 6 0 11 5
11 10 0 6 18 10 40 10 25 0 43 5 46 14 3 7 -10 42 -29 77 -19 35 -45 93 -58
129 -12 36 -30 76 -39 90 -23 35 -206 476 -242 583 -16 49 -43 118 -60 155
-16 37 -45 114 -64 171 -48 143 -53 151 -84 138z"/>
<path d="M13638 18303 c-9 -10 -48 -80 -86 -155 -39 -76 -84 -157 -100 -180
-40 -60 -123 -203 -152 -263 -13 -27 -44 -79 -71 -115 -26 -36 -71 -103 -99
-150 -29 -47 -67 -105 -85 -130 -18 -25 -45 -69 -59 -98 -15 -29 -43 -73 -62
-99 l-35 -46 35 -23 c19 -13 39 -24 44 -24 5 0 19 -9 32 -20 27 -24 70 -27 70
-5 0 8 16 37 35 64 19 26 35 55 35 63 0 8 14 35 30 61 17 26 30 50 30 53 0 3
8 17 19 32 51 75 106 170 171 297 39 77 78 147 86 156 8 8 14 20 14 26 0 6 6
16 13 22 8 6 25 32 38 58 l24 46 17 -74 c10 -41 20 -87 24 -104 3 -16 14 -66
24 -110 19 -79 98 -437 107 -485 2 -14 27 -135 54 -270 28 -135 53 -262 56
-282 3 -20 13 -44 22 -51 20 -18 141 -81 145 -76 2 2 27 51 57 109 29 58 69
130 89 160 53 79 118 188 191 320 35 63 98 169 140 235 121 187 226 346 255
388 15 20 25 38 23 40 -2 1 -43 21 -91 44 l-88 43 -11 -43 c-5 -23 -28 -67
-49 -97 -22 -30 -53 -83 -70 -118 -17 -34 -37 -68 -44 -75 -7 -6 -19 -25 -27
-42 -47 -91 -111 -207 -192 -344 -99 -166 -94 -163 -112 -71 -2 14 -23 99 -46
190 -22 91 -43 176 -45 190 -3 14 -13 59 -24 100 -10 41 -48 226 -85 410 -36
184 -68 342 -71 351 -2 9 -23 22 -47 28 -23 7 -58 28 -78 47 -34 33 -36 34
-51 17z"/>
<path d="M4173 18067 l-121 -42 -84 -85 c-83 -85 -134 -163 -146 -223 -4 -18
-7 -72 -7 -122 0 -80 4 -97 32 -158 44 -93 124 -175 219 -223 l74 -38 213 3
c331 5 325 5 376 -26 55 -34 79 -78 87 -161 8 -81 2 -101 -48 -151 -78 -78
-224 -144 -267 -121 -11 5 -32 10 -46 10 -29 0 -102 39 -130 70 -23 26 -48 10
-35 -23 15 -39 40 -125 40 -140 0 -8 9 -37 21 -64 l20 -50 55 9 c79 12 166 44
267 97 242 127 366 342 317 551 -41 176 -109 257 -266 319 -77 30 -102 34
-184 36 -52 1 -108 -3 -125 -7 -55 -16 -197 -18 -251 -3 -121 34 -183 120
-175 241 3 51 115 141 209 169 64 19 160 -4 205 -49 13 -14 16 -14 27 -1 10
12 10 28 1 73 -6 31 -13 72 -15 90 -10 75 -83 80 -263 19z"/>
<path d="M3105 17272 c-30 -2 -53 -9 -58 -18 -5 -8 -11 -13 -15 -10 -25 15
-227 -134 -321 -238 -100 -109 -187 -189 -249 -226 -14 -9 -27 -20 -29 -26 -2
-6 97 -111 220 -235 122 -123 254 -260 292 -304 39 -44 73 -81 78 -83 4 -2 7
-11 7 -20 0 -9 48 -64 106 -122 90 -88 215 -240 260 -316 11 -17 22 -9 125 91
63 61 123 115 134 122 21 13 25 9 -167 189 -23 22 -79 84 -123 138 -44 54 -98
116 -120 137 -22 22 -33 39 -25 39 8 0 180 -55 382 -122 l368 -123 130 130
c71 71 130 132 130 136 0 3 -36 13 -80 23 -43 9 -130 33 -192 53 -62 19 -158
46 -213 59 -91 22 -293 83 -305 91 -2 2 7 25 22 51 67 120 74 257 19 364 -47
91 -134 171 -215 198 -75 25 -94 27 -161 22z m-9 -278 c92 -62 123 -95 160
-169 63 -128 50 -208 -53 -322 -21 -24 -43 -43 -49 -43 -6 0 -32 26 -57 58
-25 31 -54 64 -64 73 -10 8 -56 57 -103 108 -47 51 -104 114 -128 139 l-44 47
39 32 c21 18 47 36 58 39 11 4 27 12 35 19 59 52 145 60 206 19z"/>
<path d="M15900 17009 c-30 -5 -83 -9 -118 -10 l-63 -3 36 -36 c19 -20 33 -39
29 -42 -6 -7 1 -9 106 -33 41 -10 83 -22 92 -27 25 -12 175 -38 226 -38 36 0
50 6 79 34 32 30 35 37 29 70 -4 21 -20 51 -35 67 l-28 29 -149 -1 c-82 -1
-174 -5 -204 -10z"/>
<path d="M15655 16836 c-33 -13 -98 -42 -144 -65 -47 -23 -141 -62 -210 -88
-69 -25 -184 -75 -256 -111 -71 -35 -159 -73 -195 -83 -36 -10 -110 -36 -165
-59 -55 -23 -129 -53 -165 -66 -36 -14 -102 -43 -147 -65 -45 -21 -87 -39 -92
-39 -21 0 -10 -16 49 -74 33 -33 60 -63 60 -68 0 -14 14 -9 110 42 169 90 289
142 313 134 12 -4 95 -79 183 -166 l161 -160 -19 -51 c-11 -28 -28 -69 -39
-91 -10 -22 -19 -43 -19 -48 0 -4 -27 -59 -61 -120 -58 -110 -59 -113 -40
-127 28 -18 170 -161 205 -206 15 -20 31 -33 35 -28 4 4 25 55 45 113 49 133
106 279 139 350 34 74 169 380 200 455 14 33 48 109 76 168 28 60 51 110 51
113 0 4 91 198 112 237 7 14 3 21 -20 34 -15 9 -40 33 -56 55 -15 21 -33 38
-39 38 -7 -1 -39 -11 -72 -24z m-215 -273 c0 -4 -20 -45 -44 -92 -24 -48 -46
-99 -50 -114 -4 -16 -18 -47 -33 -69 -30 -49 -83 -171 -83 -192 0 -31 -36 -11
-93 51 -62 68 -159 174 -180 196 -22 22 -16 30 38 47 22 7 73 30 113 52 41 22
129 59 195 83 135 47 137 48 137 38z"/>
<path d="M1999 16232 c-19 -37 -52 -85 -74 -107 -22 -22 -67 -78 -99 -125 -60
-86 -74 -104 -156 -200 -47 -55 -120 -158 -120 -169 0 -3 42 -33 92 -66 50
-33 96 -65 102 -70 6 -6 27 -22 46 -35 78 -54 231 -168 320 -241 93 -75 213
-161 335 -243 33 -22 93 -71 134 -108 90 -84 124 -109 137 -100 13 10 64 76
104 137 19 29 60 84 91 121 30 38 72 96 93 129 21 33 57 80 80 105 61 64 116
135 116 149 0 6 -11 16 -24 21 -13 5 -39 21 -57 37 -71 59 -65 59 -88 8 -42
-95 -227 -355 -252 -355 -14 0 -129 83 -154 110 -10 11 -44 36 -74 55 -31 19
-61 42 -67 53 -7 10 -37 34 -68 52 -31 19 -56 37 -56 41 0 21 200 271 274 342
30 29 29 57 -3 57 -10 0 -42 20 -69 45 l-51 46 -52 -78 c-29 -43 -77 -111
-107 -150 -29 -40 -66 -96 -81 -123 l-28 -51 -59 40 c-32 22 -75 54 -94 71
-80 72 -149 128 -183 149 -20 12 -37 27 -37 32 0 5 12 19 26 32 14 12 39 41
55 64 16 23 49 64 74 90 24 26 45 51 45 55 0 4 23 33 50 64 28 31 50 61 50 65
0 5 -12 16 -27 26 -41 26 -53 35 -82 65 l-27 26 -35 -66z"/>
<path d="M16596 15797 c-21 -18 -150 -99 -287 -182 -136 -82 -303 -184 -371
-226 -186 -115 -386 -230 -505 -291 -24 -12 -43 -26 -43 -32 0 -5 20 -39 44
-75 24 -37 56 -88 71 -116 15 -27 35 -59 44 -71 l17 -22 47 29 c26 16 50 29
53 29 3 0 49 29 102 63 183 120 327 213 364 235 l36 23 7 -21 c4 -11 23 -42
43 -68 20 -26 47 -69 60 -97 13 -27 34 -64 47 -80 12 -17 45 -76 73 -131 28
-55 63 -115 78 -133 14 -17 25 -33 23 -35 -14 -9 -205 -120 -374 -216 -110
-62 -210 -119 -222 -126 l-22 -14 24 -38 c14 -20 29 -42 34 -48 5 -6 16 -24
24 -40 8 -16 31 -53 51 -83 20 -29 36 -59 36 -67 0 -8 2 -14 5 -14 13 0 125
69 335 208 297 196 371 242 451 282 35 18 95 53 133 79 39 25 126 76 195 112
69 36 126 70 128 76 2 5 -6 20 -17 33 -11 13 -20 29 -20 35 0 7 -15 35 -33 61
-19 27 -43 69 -55 94 -37 80 -30 80 -135 4 -123 -89 -262 -178 -339 -216 -74
-37 -56 -55 -202 206 -15 28 -49 78 -73 111 -25 33 -63 94 -84 137 l-38 76 66
33 c37 18 96 53 131 77 64 44 276 152 299 152 25 0 22 20 -7 53 -17 19 -39 55
-50 80 -11 24 -27 50 -35 57 -8 7 -15 19 -15 27 0 16 -36 89 -47 96 -5 3 -26
-9 -47 -26z"/>
<path d="M9135 15664 c-16 -14 -79 -71 -138 -126 -59 -56 -116 -109 -126 -117
-10 -9 -69 -63 -131 -121 -62 -58 -122 -113 -133 -123 -20 -17 -20 -17 -1 -40
11 -12 56 -62 100 -112 43 -49 91 -103 105 -120 37 -42 206 -234 238 -270 15
-16 76 -86 136 -155 109 -124 122 -139 226 -255 30 -34 81 -92 114 -130 33
-38 100 -115 149 -170 48 -55 111 -126 140 -158 28 -33 56 -64 61 -70 43 -48
176 -199 204 -232 19 -22 62 -71 96 -110 34 -38 127 -144 206 -235 79 -91 148
-170 154 -176 5 -6 28 -32 50 -59 22 -26 45 -53 51 -59 17 -18 143 -162 330
-376 60 -69 111 -127 114 -130 3 -3 32 -36 65 -75 33 -38 80 -92 105 -118 25
-27 52 -59 60 -73 8 -13 17 -24 21 -24 3 0 36 -36 73 -80 38 -44 72 -80 76
-80 7 0 117 92 351 294 20 17 89 76 153 130 64 55 116 105 116 110 0 6 -19 31
-43 56 -23 25 -107 119 -186 210 -79 91 -156 177 -170 193 -33 35 -42 45 -126
142 -39 44 -72 82 -75 85 -3 3 -37 41 -75 85 -39 44 -72 82 -75 85 -3 3 -53
59 -110 125 -58 66 -112 127 -120 135 -8 9 -42 47 -75 84 -33 38 -65 74 -70
80 -6 6 -39 44 -75 85 -36 41 -72 82 -80 91 -28 30 -84 95 -190 215 -58 66
-107 122 -110 125 -4 3 -59 66 -124 140 -65 74 -146 165 -178 202 -71 80 -76
86 -148 168 -30 35 -64 73 -75 84 -11 12 -38 42 -59 66 -47 53 -180 200 -227
251 -19 19 -72 77 -119 129 -47 51 -94 103 -105 114 -11 12 -67 73 -125 136
-158 173 -183 200 -189 200 -4 0 -19 -12 -36 -26z"/>
<path d="M1241 15132 c-7 -28 -16 -52 -19 -54 -4 -2 -17 -15 -30 -29 l-23 -26
228 -230 c276 -277 375 -383 473 -503 25 -30 51 -61 57 -68 20 -20 16 -31 -9
-27 -42 7 -152 16 -228 20 -41 2 -97 7 -125 9 -27 3 -81 8 -120 11 -38 4 -128
15 -200 26 -71 11 -157 22 -190 25 -33 3 -87 9 -120 14 -117 15 -105 25 -177
-145 -23 -55 -45 -102 -48 -105 -7 -5 -40 -66 -40 -73 0 -2 64 -7 143 -11 78
-3 167 -8 197 -11 30 -2 84 -7 120 -9 36 -3 76 -7 90 -10 14 -3 77 -7 140 -10
63 -3 126 -8 140 -11 14 -2 82 -7 153 -9 70 -3 131 -7 136 -10 4 -3 57 -8 117
-11 60 -4 136 -10 169 -16 33 -5 83 -9 111 -9 45 0 52 3 62 25 7 14 12 31 12
37 0 7 12 29 26 50 l26 37 -92 103 c-52 57 -130 142 -174 189 -107 113 -138
148 -221 249 -39 46 -111 125 -161 175 -50 49 -126 135 -170 190 -43 55 -115
138 -159 184 l-81 83 -13 -50z"/>
<path d="M8204 14782 c-33 -31 -89 -84 -125 -116 -80 -74 -267 -247 -336 -312
l-53 -49 67 -75 c36 -41 107 -122 157 -179 50 -57 96 -109 101 -115 6 -6 59
-67 119 -136 59 -69 116 -132 125 -140 9 -8 23 -25 31 -36 8 -12 38 -46 65
-76 28 -30 75 -83 105 -118 51 -59 192 -221 215 -246 15 -17 98 -112 380 -434
141 -162 269 -308 284 -325 15 -16 61 -68 101 -115 41 -47 77 -87 80 -90 3 -3
34 -39 70 -80 36 -41 67 -77 70 -80 3 -3 34 -39 70 -80 36 -41 67 -77 71 -80
5 -5 340 -396 384 -449 11 -13 25 -29 30 -35 6 -6 35 -40 65 -76 30 -36 61
-71 68 -79 7 -7 58 -67 114 -133 l100 -119 26 23 c45 40 48 42 92 78 24 19
153 126 287 238 l244 203 -163 182 c-89 100 -181 202 -204 227 -23 25 -83 92
-134 150 -51 58 -107 121 -124 140 -37 41 -182 203 -276 309 -36 40 -74 83
-85 95 -37 41 -160 179 -176 198 -9 10 -45 50 -79 88 -34 38 -70 78 -79 88 -9
10 -44 50 -78 88 -34 38 -70 78 -80 90 -22 25 -142 161 -199 224 -22 25 -56
63 -76 85 -33 37 -115 130 -177 200 -15 17 -52 57 -82 90 -29 34 -74 83 -98
110 -24 28 -74 84 -111 125 -37 41 -127 143 -200 225 -73 83 -149 168 -169
190 -20 22 -105 118 -189 213 -85 94 -157 172 -160 172 -4 0 -34 -26 -68 -58z"/>
<path d="M7315 13983 c-33 -31 -87 -81 -120 -112 -52 -49 -222 -205 -352 -325
-24 -22 -43 -42 -43 -46 0 -7 18 -30 63 -80 12 -14 65 -74 117 -135 52 -60 98
-112 101 -115 3 -3 34 -39 69 -80 35 -41 67 -77 70 -80 3 -3 32 -36 65 -75 63
-73 313 -359 540 -620 72 -82 142 -163 156 -179 13 -16 35 -41 49 -56 14 -15
48 -54 75 -86 28 -32 117 -135 199 -229 167 -191 183 -209 431 -495 98 -113
194 -223 214 -246 20 -22 77 -87 126 -144 76 -88 239 -275 344 -395 14 -16 73
-84 130 -150 57 -66 107 -122 112 -123 5 -2 33 16 61 40 29 23 62 50 73 60
123 101 209 174 234 199 9 8 71 64 139 123 132 117 128 110 82 156 -3 3 -41
48 -85 100 -100 120 -353 414 -395 460 -40 43 -84 92 -130 146 -63 72 -174
197 -210 235 -19 20 -55 61 -79 89 -25 29 -50 58 -56 64 -5 6 -48 54 -95 106
-46 52 -101 113 -121 135 -20 22 -96 108 -169 190 -73 83 -147 166 -164 185
-37 41 -195 220 -240 270 -17 19 -141 159 -276 310 -134 151 -249 280 -255
286 -5 6 -39 44 -75 85 -36 40 -72 80 -80 89 -8 9 -64 72 -125 140 -60 69
-114 130 -120 136 -5 6 -39 44 -75 84 -35 40 -78 87 -95 105 l-30 33 -60 -55z"/>
<path d="M17420 13910 c-96 -33 -213 -71 -260 -84 -47 -14 -98 -30 -115 -36
-16 -7 -61 -20 -100 -30 -38 -10 -87 -25 -108 -34 -21 -9 -56 -19 -77 -21 -21
-2 -76 -22 -121 -44 -105 -50 -218 -153 -254 -233 -67 -147 -48 -393 46 -613
104 -243 246 -346 477 -349 129 -1 250 20 437 75 38 12 79 23 91 25 12 2 59
15 105 29 46 14 127 37 179 51 52 14 126 35 163 46 37 12 78 22 90 23 12 1 25
3 29 4 9 2 -3 41 -13 41 -5 0 -9 11 -9 24 0 14 -4 28 -10 31 -5 3 -10 26 -10
50 0 25 -5 45 -13 48 -7 2 -50 -9 -97 -25 -47 -16 -134 -44 -195 -64 -60 -19
-119 -39 -130 -44 -57 -24 -106 -39 -156 -49 -78 -15 -81 -16 -219 -52 -114
-30 -137 -33 -257 -31 -120 1 -137 4 -182 27 -69 35 -118 79 -139 129 -52 116
-61 285 -21 371 35 76 122 156 194 180 33 10 67 23 75 27 59 30 175 71 262 92
57 14 181 47 275 75 95 27 218 57 273 67 55 10 99 21 98 24 -10 20 -58 163
-68 200 -28 100 -37 125 -51 127 -8 1 -93 -24 -189 -57z"/>
<path d="M504 13438 c-4 -18 -8 -35 -9 -38 0 -3 -6 -26 -13 -52 -6 -27 -17
-69 -24 -95 -6 -27 -21 -60 -32 -75 -11 -15 -17 -30 -14 -34 5 -5 199 -57 258
-69 81 -17 219 -57 390 -114 113 -38 248 -80 300 -95 114 -31 272 -82 315
-100 101 -45 141 -54 142 -33 1 6 6 26 12 42 5 17 20 64 32 105 12 41 28 93
35 116 7 22 9 45 6 51 -4 6 -72 27 -152 47 -261 68 -333 87 -384 106 -28 10
-100 30 -161 45 -115 27 -325 95 -385 124 -19 10 -55 23 -80 30 -25 7 -83 26
-130 42 -47 16 -88 29 -92 29 -3 0 -10 -15 -14 -32z"/>
<path d="M6625 12892 c-23 -20 -101 -89 -174 -152 -74 -63 -139 -120 -145
-125 -6 -6 -60 -53 -121 -105 -60 -52 -114 -100 -120 -106 -5 -6 -59 -53 -120
-105 -60 -52 -116 -100 -123 -107 -8 -7 -80 -70 -161 -140 -80 -69 -148 -129
-151 -132 -3 -3 -72 -64 -155 -135 -183 -159 -204 -177 -275 -240 -47 -42
-163 -143 -270 -235 -14 -12 -39 -34 -55 -48 -17 -15 -62 -54 -100 -87 -39
-33 -72 -63 -75 -66 -3 -3 -27 -25 -55 -49 -69 -59 -166 -143 -179 -155 -6 -6
-42 -37 -81 -70 -38 -33 -72 -63 -75 -66 -3 -3 -43 -39 -90 -79 -47 -40 -87
-76 -90 -79 -3 -3 -50 -44 -105 -91 -55 -47 -107 -92 -115 -100 -19 -18 -38
-34 -240 -210 -181 -157 -180 -157 -180 -165 0 -5 88 -113 110 -135 3 -3 45
-52 95 -110 49 -58 92 -107 95 -110 3 -3 56 -65 119 -138 l113 -132 81 72 c45
40 127 113 182 162 55 49 116 103 135 120 19 17 75 67 125 111 49 44 95 85
101 90 6 6 39 35 74 65 35 30 73 64 85 75 17 17 54 49 201 180 35 31 161 143
180 160 12 11 53 47 90 80 37 33 78 69 90 80 12 11 47 42 78 69 31 27 70 61
85 75 55 51 107 97 175 156 39 33 82 71 96 85 15 14 55 50 89 80 35 30 68 60
75 66 6 5 36 32 66 59 102 90 214 190 236 211 12 11 33 30 48 41 14 11 61 52
103 91 43 39 88 79 100 89 12 11 54 49 95 85 40 36 145 128 233 204 88 76 162
140 165 144 3 3 54 48 115 99 60 52 123 107 140 122 16 15 40 35 52 46 l23 18
-38 41 c-47 53 -221 241 -247 269 -11 11 -65 70 -120 130 -55 61 -105 116
-112 122 -19 20 -35 15 -78 -25z"/>
<path d="M249 12526 c-2 -50 -8 -135 -11 -151 -3 -16 3 -19 37 -20 22 0 45 -3
50 -7 6 -3 41 -9 79 -13 38 -3 72 -8 76 -10 5 -3 36 -7 71 -10 63 -5 99 -10
149 -20 14 -3 39 -7 55 -10 17 -2 102 -18 190 -34 88 -16 184 -33 213 -37 29
-3 55 -10 57 -14 3 -5 -16 -20 -42 -35 -27 -15 -139 -89 -251 -164 -111 -75
-343 -226 -515 -337 -283 -182 -312 -203 -315 -230 -2 -16 -7 -40 -12 -54 -5
-14 -12 -37 -14 -53 -3 -15 -8 -36 -11 -47 -5 -16 -2 -20 17 -21 41 -1 91 -8
117 -14 14 -4 40 -8 56 -10 17 -2 55 -6 85 -10 30 -3 80 -8 110 -11 30 -2 118
-18 195 -34 77 -16 176 -36 220 -45 44 -8 112 -22 150 -31 39 -8 78 -17 88
-19 10 -2 26 -6 35 -9 9 -3 37 -8 62 -11 61 -7 130 -20 222 -41 43 -10 80 -15
83 -12 3 3 6 35 6 72 1 36 5 68 10 72 16 9 10 33 -11 44 -11 6 -60 12 -109 14
-49 2 -94 7 -99 10 -5 3 -36 7 -68 10 -33 2 -98 13 -144 24 -83 20 -125 26
-245 37 -33 3 -73 10 -90 15 -16 5 -54 12 -83 15 -29 3 -63 10 -77 15 -13 5
-34 7 -45 5 -32 -6 -13 13 72 70 40 27 75 52 78 55 31 35 834 565 938 619 26
14 46 58 55 121 3 25 9 53 12 62 6 16 -11 19 -185 34 -41 3 -100 12 -130 19
-62 15 -113 23 -183 30 -26 3 -101 18 -166 35 -123 31 -145 35 -246 45 -33 3
-68 8 -77 11 -16 5 -36 9 -88 19 -14 3 -36 7 -50 10 -14 3 -36 8 -50 11 -14 2
-36 7 -50 9 -45 9 -67 13 -104 19 -20 3 -54 10 -76 15 -29 6 -40 6 -41 -3z"/>
<path d="M12580 12323 c-89 -76 -190 -165 -210 -183 -9 -8 -47 -42 -85 -75
-39 -33 -86 -74 -105 -92 -19 -17 -46 -41 -60 -53 -14 -11 -36 -31 -50 -43
-14 -12 -61 -54 -105 -92 -44 -39 -82 -72 -85 -75 -3 -3 -63 -57 -135 -119
-71 -62 -146 -128 -165 -145 -19 -17 -89 -79 -155 -136 -66 -58 -122 -107
-125 -110 -3 -3 -39 -34 -80 -70 -41 -36 -77 -67 -80 -70 -3 -3 -41 -36 -85
-75 -75 -66 -133 -117 -159 -140 -6 -5 -45 -40 -86 -76 -71 -62 -107 -93 -156
-136 -53 -46 -159 -139 -174 -153 -9 -8 -50 -44 -91 -80 -41 -35 -76 -67 -79
-70 -3 -3 -77 -68 -165 -145 -88 -77 -176 -154 -195 -171 -52 -46 -151 -133
-185 -163 -113 -98 -202 -177 -211 -185 -6 -6 -40 -36 -75 -66 -35 -30 -78
-68 -96 -85 l-33 -30 111 -130 c61 -71 123 -143 138 -160 14 -16 67 -77 116
-135 50 -58 96 -111 103 -118 7 -8 24 -29 38 -48 17 -21 31 -31 39 -26 10 5
123 105 179 157 6 6 74 66 151 135 77 69 145 130 151 135 43 40 197 178 284
255 58 51 107 96 110 99 3 3 43 40 90 81 47 41 92 82 100 90 8 8 53 49 100 90
47 41 92 81 101 90 8 8 49 44 89 80 40 36 78 70 84 75 6 6 56 50 111 100 55
49 118 106 140 126 49 44 439 393 479 429 16 14 39 34 50 45 12 11 60 54 106
95 77 68 157 140 199 180 9 8 66 58 126 110 61 52 112 97 115 100 3 3 121 106
262 229 173 150 255 228 250 236 -4 7 -54 64 -112 126 -58 62 -109 117 -115
123 -23 26 -242 264 -270 293 l-30 32 -65 -56z"/>
<path d="M7449 12007 c-20 -17 -123 -108 -229 -202 -107 -93 -204 -179 -216
-190 -12 -11 -37 -33 -55 -49 -68 -59 -285 -251 -314 -277 -30 -28 -283 -248
-340 -297 -16 -14 -48 -41 -71 -61 -22 -20 -53 -47 -70 -61 -76 -65 -362 -313
-408 -355 -6 -5 -56 -49 -111 -96 -132 -113 -1008 -873 -1049 -909 -17 -15
-71 -62 -121 -105 -49 -42 -106 -91 -126 -108 -41 -37 -79 -69 -132 -114 l-37
-32 186 -218 c102 -120 198 -232 213 -248 14 -17 52 -61 84 -97 55 -64 59 -66
76 -50 26 25 100 91 166 147 32 28 63 55 69 61 6 5 49 43 96 84 47 41 87 77
90 80 3 3 55 48 115 100 61 52 112 97 115 100 3 3 43 39 90 80 47 41 91 80 98
87 7 6 34 29 59 50 26 21 57 47 68 59 11 12 51 48 90 80 38 32 76 66 85 74 9
8 45 40 80 70 35 30 83 73 108 95 25 22 54 48 66 58 95 82 132 115 150 132 12
11 53 47 91 80 39 33 72 62 75 65 4 5 354 312 444 390 16 14 41 36 56 50 15
14 40 36 56 50 84 73 270 236 274 240 5 5 131 116 199 175 19 17 55 49 80 71
25 23 73 65 106 94 33 29 76 67 95 84 19 17 71 62 115 100 44 38 98 86 120
107 l40 38 -21 23 c-11 13 -74 84 -140 158 -65 74 -121 137 -124 140 -9 9 -94
104 -160 179 -66 75 -90 101 -93 101 -1 0 -18 -15 -38 -33z"/>
<path d="M16660 12010 c0 -17 5 -41 12 -53 6 -12 10 -43 9 -68 -2 -55 -9 -51
127 -74 51 -9 104 -20 118 -25 33 -13 158 -41 170 -39 26 5 34 -4 34 -37 0
-19 5 -44 10 -55 6 -10 11 -45 12 -77 1 -31 5 -64 9 -73 5 -10 11 -55 13 -101
2 -47 7 -100 11 -119 l6 -34 -123 -59 c-68 -33 -162 -78 -209 -100 l-86 -41
11 -35 c7 -19 11 -60 10 -90 -1 -30 3 -64 9 -74 5 -11 11 -54 13 -95 2 -42 3
-77 3 -79 1 -1 27 14 59 34 58 38 416 248 507 298 28 15 75 38 106 51 31 12
84 41 118 64 34 23 139 81 234 129 94 48 216 114 269 146 94 56 97 59 96 92
-1 19 -7 39 -15 45 -17 15 -16 29 3 50 16 17 15 19 -7 28 -13 5 -98 25 -189
46 -91 20 -212 52 -269 71 -57 19 -119 36 -139 39 -19 2 -39 9 -46 14 -10 8
-63 21 -146 35 -44 7 -173 44 -250 72 -41 14 -88 30 -105 34 -29 8 -332 95
-367 106 -15 4 -18 -1 -18 -26z m1028 -413 c45 -12 82 -24 82 -27 0 -6 -190
-120 -223 -132 -10 -4 -16 -12 -13 -17 3 -5 -9 -12 -27 -15 -18 -3 -68 -26
-112 -51 -43 -25 -80 -43 -83 -40 -5 5 -8 23 -17 129 -4 38 -9 78 -11 89 -2
11 -6 52 -10 91 -3 39 -8 74 -10 78 -2 3 74 -14 168 -39 95 -25 210 -54 256
-66z"/>
<path d="M13400 11414 c-30 -26 -80 -68 -110 -94 -30 -27 -127 -110 -215 -185
-88 -76 -187 -161 -220 -190 -66 -58 -125 -108 -201 -172 -28 -24 -62 -53 -76
-65 -14 -13 -38 -34 -54 -48 -70 -60 -169 -146 -184 -160 -19 -17 -44 -39
-200 -175 -63 -55 -120 -104 -126 -110 -6 -5 -37 -32 -69 -60 -32 -27 -68 -59
-79 -70 -12 -11 -46 -41 -76 -66 -30 -26 -66 -57 -81 -70 -14 -13 -54 -49 -90
-79 -35 -30 -66 -58 -69 -61 -3 -3 -43 -39 -90 -79 -47 -40 -87 -76 -90 -79
-3 -3 -36 -33 -75 -65 -38 -33 -74 -64 -80 -70 -5 -6 -41 -38 -80 -71 -38 -33
-75 -64 -81 -70 -6 -5 -39 -35 -74 -65 -35 -30 -74 -64 -86 -75 -12 -11 -48
-42 -80 -70 -32 -27 -69 -60 -83 -73 -13 -12 -47 -41 -74 -65 -28 -23 -58 -49
-66 -57 -9 -9 -50 -45 -91 -80 -41 -36 -80 -69 -86 -75 -6 -5 -39 -35 -74 -65
-35 -30 -75 -66 -89 -79 -14 -13 -41 -36 -60 -52 -32 -26 -33 -30 -20 -46 48
-57 135 -159 139 -163 6 -6 114 -132 179 -210 25 -29 51 -59 59 -66 8 -8 41
-47 74 -87 33 -39 64 -74 69 -75 10 -4 38 18 154 123 44 40 141 126 215 191
74 65 140 123 146 129 12 11 135 119 164 145 9 8 53 47 96 86 43 39 95 84 114
100 19 16 40 34 45 40 10 11 138 124 269 239 71 62 92 81 166 149 25 22 119
106 210 186 91 79 167 147 170 150 3 3 38 35 79 70 41 36 82 72 91 80 9 8 32
28 51 45 19 16 108 95 199 175 91 80 180 159 199 175 19 17 42 37 51 45 9 8
50 44 91 80 41 35 76 67 79 70 3 3 97 87 210 185 113 99 207 182 210 185 3 3
61 54 130 114 69 60 133 117 142 125 17 15 16 18 -5 42 -19 23 -151 166 -247
269 -55 59 -202 219 -235 256 l-31 34 -54 -46z"/>
<path d="M8280 11071 c-30 -26 -176 -153 -325 -281 -148 -128 -283 -244 -300
-259 -16 -14 -84 -73 -150 -130 -66 -57 -134 -115 -150 -130 -17 -14 -62 -53
-100 -86 -39 -33 -72 -62 -75 -65 -3 -3 -84 -73 -180 -155 -96 -83 -180 -154
-186 -160 -6 -5 -35 -30 -64 -55 -29 -25 -62 -54 -74 -65 -12 -11 -67 -59
-122 -107 -56 -48 -108 -93 -115 -100 -8 -7 -63 -56 -124 -108 -60 -52 -116
-102 -125 -110 -9 -8 -42 -37 -74 -65 -32 -27 -68 -59 -80 -70 -42 -38 -161
-142 -201 -176 -22 -19 -42 -37 -45 -40 -3 -3 -117 -104 -255 -224 -137 -120
-273 -239 -301 -264 -27 -25 -80 -73 -117 -105 -37 -33 -67 -62 -67 -65 0 -5
58 -76 169 -207 14 -18 100 -122 191 -232 91 -111 170 -201 175 -201 6 0 35
23 66 52 55 52 203 186 288 262 25 22 55 49 67 60 11 11 61 56 110 100 49 44
118 107 154 140 36 33 103 94 149 135 46 41 93 84 106 95 12 11 37 34 56 50
68 59 205 181 244 216 22 20 56 50 75 65 19 16 40 34 45 40 6 6 37 35 70 64
33 29 74 65 90 79 17 15 89 78 160 141 72 63 132 117 135 120 3 3 43 39 90 80
47 41 90 80 96 85 6 6 42 37 79 70 38 33 79 69 91 80 35 32 83 75 169 150 44
39 82 73 85 76 4 5 160 142 379 334 19 17 44 39 55 50 12 11 55 49 96 85 41
36 93 82 115 102 22 20 51 46 65 58 14 12 55 49 93 82 63 58 66 62 50 78 -10
9 -61 63 -113 120 -122 132 -126 136 -246 266 -56 60 -114 124 -130 142 -16
17 -31 32 -34 32 -3 -1 -30 -22 -60 -49z"/>
<path d="M0 10495 c0 -64 3 -114 7 -112 25 15 131 20 503 22 463 2 530 -5 658
-66 74 -36 143 -115 163 -187 27 -96 9 -285 -34 -368 -31 -59 -95 -98 -222
-135 -77 -23 -92 -24 -445 -24 -201 0 -412 4 -470 9 -58 5 -116 9 -130 10
l-25 1 -3 -167 -2 -168 22 -1 c13 0 234 0 492 0 390 0 530 4 576 16 3 1 22 5
43 9 50 11 156 79 224 145 65 62 142 320 144 481 3 220 -101 435 -254 524
-144 85 -229 98 -657 102 -195 1 -368 7 -385 12 -16 4 -69 9 -117 11 l-88 2 0
-116z"/>
<path d="M17405 10578 c-53 -9 -143 -36 -160 -48 -5 -3 -32 -15 -60 -25 -86
-31 -160 -96 -257 -225 -30 -40 -87 -151 -94 -183 -50 -230 -52 -390 -8 -602
3 -16 17 -56 31 -87 23 -51 29 -58 54 -58 15 0 31 -4 34 -10 3 -5 19 -10 35
-10 16 0 41 -5 56 -10 43 -17 53 4 15 35 -17 15 -31 35 -31 44 0 10 -15 38
-33 62 -29 40 -48 91 -61 171 -3 15 -8 33 -11 39 -12 18 -7 84 11 156 55 222
205 346 472 389 183 30 410 -10 551 -97 103 -63 162 -131 195 -223 42 -114 47
-167 24 -260 -22 -92 -46 -132 -129 -211 -32 -31 -59 -60 -59 -64 0 -4 33 -14
73 -21 39 -7 89 -22 109 -32 21 -10 40 -18 42 -18 16 0 86 224 91 290 1 19 7
48 14 63 15 38 6 210 -17 322 -39 186 -187 412 -332 505 -134 86 -391 136
-555 108z"/>
<path d="M14219 10490 c-46 -40 -86 -76 -89 -79 -3 -3 -34 -31 -70 -61 -68
-57 -115 -98 -134 -115 -6 -6 -56 -48 -111 -95 -55 -47 -107 -92 -116 -100
-17 -16 -50 -45 -144 -125 -79 -67 -140 -120 -211 -182 -32 -28 -70 -61 -84
-73 -14 -12 -47 -41 -75 -65 -72 -62 -94 -82 -149 -128 -27 -23 -54 -47 -60
-52 -6 -6 -60 -53 -121 -105 -60 -52 -115 -99 -121 -105 -6 -5 -35 -30 -64
-55 -29 -25 -58 -50 -64 -55 -6 -6 -42 -37 -81 -70 -38 -33 -72 -62 -75 -65
-5 -5 -237 -213 -318 -285 -19 -16 -44 -39 -56 -50 -53 -48 -192 -171 -326
-291 -80 -71 -150 -133 -156 -139 -6 -5 -44 -39 -84 -75 -95 -85 -95 -84 -180
-160 -40 -36 -84 -74 -96 -86 -145 -130 -179 -160 -191 -167 -14 -9 -1 -33 44
-82 10 -11 61 -72 113 -135 52 -63 157 -190 233 -282 l138 -166 28 26 c23 23
102 96 281 262 21 19 89 82 150 140 62 58 122 113 133 123 12 10 71 64 131
121 163 152 204 189 416 376 58 51 123 109 145 129 22 20 76 68 120 106 129
114 146 129 175 155 15 14 55 50 90 80 35 30 68 60 74 66 6 5 49 43 96 84 47
41 87 77 90 80 5 5 139 124 199 176 18 16 46 40 61 54 15 14 58 52 95 85 38
33 73 65 79 70 6 6 88 78 181 160 94 82 175 154 181 160 11 10 99 88 204 180
30 27 60 54 66 59 6 6 39 36 74 66 35 30 84 74 109 97 25 23 57 51 70 62 l24
21 -49 52 c-27 29 -67 73 -90 98 -24 25 -52 56 -63 69 -21 24 -180 196 -282
304 l-55 59 -85 -72z"/>
<path d="M8514 9662 c-16 -14 -81 -73 -144 -132 -63 -59 -128 -120 -145 -135
-38 -34 -201 -185 -238 -219 l-27 -25 67 -78 c38 -43 75 -85 83 -93 8 -9 38
-42 65 -74 28 -33 57 -66 66 -75 8 -9 111 -126 228 -261 118 -135 230 -263
250 -285 20 -22 64 -71 96 -110 33 -38 65 -74 71 -80 5 -5 41 -46 80 -90 38
-44 71 -82 75 -85 6 -5 329 -376 370 -424 13 -16 29 -34 34 -40 6 -6 82 -94
170 -196 88 -102 162 -187 165 -190 3 -3 30 -34 60 -70 61 -73 100 -117 115
-134 6 -6 82 -94 170 -196 194 -225 411 -476 475 -550 168 -194 220 -256 220
-263 0 -7 95 66 170 130 14 11 84 69 155 128 72 59 141 117 155 129 14 11 47
39 75 61 27 22 62 51 77 64 l27 24 -67 76 c-37 42 -69 78 -72 81 -3 3 -43 48
-90 100 -46 52 -86 97 -89 100 -3 3 -24 25 -46 50 -74 84 -166 189 -188 213
-36 39 -151 168 -170 191 -10 12 -33 37 -50 56 -18 19 -66 73 -107 120 -41 46
-84 94 -95 106 -11 11 -33 36 -50 55 -82 94 -181 205 -186 209 -3 3 -27 30
-54 60 -50 57 -172 195 -190 214 -6 6 -64 72 -130 146 -66 74 -122 137 -125
140 -3 3 -39 43 -80 90 -41 47 -78 87 -81 90 -3 3 -27 30 -54 60 -26 30 -80
91 -120 135 -99 110 -247 276 -325 365 -36 40 -74 84 -85 96 -23 25 -49 55
-155 174 -41 47 -79 90 -85 96 -5 6 -23 26 -40 45 -16 19 -69 77 -116 130
l-86 96 -29 -25z"/>
<path d="M627 8860 c-82 -34 -127 -67 -166 -124 -77 -111 -87 -227 -32 -357
39 -94 89 -147 177 -190 86 -43 169 -46 269 -12 110 38 173 90 220 182 25 50
30 78 29 166 0 67 -5 90 -29 140 -44 90 -124 165 -212 199 -92 35 -162 34
-256 -4z"/>
<path d="M17378 8876 c-97 -35 -196 -119 -237 -201 -51 -103 -18 -301 67 -392
73 -81 213 -139 306 -128 108 13 232 100 294 204 22 38 27 58 28 132 2 72 -2
99 -26 167 -44 126 -72 153 -210 203 -90 32 -161 37 -222 15z"/>
<path d="M18547 8882 l-27 -3 2 -347 3 -346 40 0 40 0 5 298 c5 269 6 295 19
260 20 -58 138 -377 173 -471 17 -46 34 -83 37 -84 31 -4 72 -4 79 0 5 3 26
56 46 116 21 61 41 117 43 125 3 8 21 58 40 110 19 52 41 118 49 145 9 28 19
54 23 58 4 4 7 -117 7 -269 -1 -296 -1 -299 50 -289 10 2 24 4 29 4 7 1 10
120 10 343 l0 342 -23 6 c-13 3 -43 3 -67 2 -51 -4 -41 14 -120 -237 -31 -99
-61 -195 -67 -214 -6 -19 -22 -59 -36 -90 -23 -50 -26 -53 -34 -31 -5 12 -15
37 -22 54 -8 17 -42 119 -76 226 -34 107 -68 216 -76 242 l-15 46 -52 4 c-29
1 -64 2 -80 0z"/>
<path d="M19373 8536 l2 -350 33 1 c17 1 38 2 45 2 9 1 12 38 10 156 l-2 155
79 0 c43 0 82 -4 85 -10 3 -5 13 -10 22 -10 21 0 79 -63 105 -115 20 -37 65
-98 114 -154 21 -22 48 -27 116 -22 12 1 -4 29 -62 109 -44 59 -99 128 -123
154 l-43 48 32 6 c47 9 85 36 117 82 25 36 29 49 28 111 -1 85 -17 121 -70
157 -39 25 -41 26 -265 27 l-226 2 3 -349z m402 250 c49 -29 53 -34 65 -76 7
-23 3 -37 -19 -72 -24 -38 -34 -45 -82 -55 -30 -7 -105 -13 -166 -13 l-111 0
0 123 0 122 134 -2 c125 -1 137 -3 179 -27z"/>
<path d="M7589 8787 c-25 -23 -74 -67 -108 -97 -35 -30 -73 -64 -85 -75 -12
-11 -45 -40 -72 -64 -144 -127 -202 -180 -241 -216 l-42 -40 32 -35 c18 -19
142 -161 277 -315 134 -154 247 -282 250 -285 3 -3 34 -39 70 -80 36 -41 69
-80 75 -86 5 -6 33 -37 60 -69 28 -32 55 -63 61 -69 9 -10 138 -157 198 -226
63 -72 257 -294 311 -355 34 -38 75 -86 91 -105 16 -19 36 -42 44 -50 8 -9 27
-30 41 -46 14 -16 59 -68 100 -114 40 -47 86 -98 100 -115 14 -16 48 -55 75
-85 86 -97 169 -192 244 -280 40 -47 78 -90 84 -95 6 -6 40 -44 76 -85 35 -41
67 -77 70 -80 3 -3 52 -59 110 -125 162 -185 164 -187 185 -209 11 -12 47 -53
80 -91 33 -39 68 -79 78 -90 11 -11 53 -59 95 -107 42 -49 81 -88 86 -88 6 0
76 57 156 126 80 69 159 138 175 152 17 14 46 39 65 56 20 17 57 49 84 71 27
22 56 47 64 55 9 8 31 27 49 42 l33 26 -27 34 c-15 18 -30 35 -33 38 -3 3 -53
59 -110 125 -58 66 -107 122 -110 125 -3 3 -52 59 -110 125 -57 66 -107 122
-110 125 -3 3 -48 55 -100 115 -52 61 -100 115 -106 120 -6 6 -91 102 -190
215 -98 113 -191 219 -206 235 -14 17 -36 41 -48 55 -39 46 -135 153 -158 179
-12 13 -40 45 -62 71 -22 26 -50 58 -62 72 -49 53 -171 190 -303 338 -76 85
-154 173 -174 195 -20 22 -70 78 -111 125 -41 47 -79 90 -85 96 -5 6 -39 44
-75 84 -36 40 -70 78 -75 84 -6 6 -80 90 -164 186 -85 96 -162 182 -170 191
-9 9 -43 47 -76 84 -33 38 -65 73 -70 79 -6 6 -46 52 -89 101 -44 50 -85 91
-90 92 -6 2 -32 -16 -57 -40z"/>
<path d="M6670 7977 c-53 -49 -244 -225 -301 -278 -127 -115 -219 -203 -219
-208 0 -4 8 -16 18 -27 9 -10 78 -89 152 -174 74 -85 146 -168 160 -184 14
-15 34 -38 45 -50 11 -13 47 -53 80 -91 33 -38 65 -73 70 -79 6 -6 121 -137
255 -291 135 -154 249 -285 255 -291 28 -30 164 -186 424 -484 31 -35 63 -71
71 -80 13 -14 93 -106 171 -195 14 -16 48 -55 75 -85 43 -49 110 -126 184
-210 12 -14 41 -47 64 -74 22 -27 50 -58 62 -70 11 -12 49 -55 85 -96 35 -41
66 -77 69 -80 6 -6 123 -140 166 -189 16 -19 38 -44 49 -55 11 -12 49 -55 85
-96 217 -249 342 -390 347 -390 2 0 50 42 107 93 56 50 195 170 309 265 129
109 205 178 200 185 -4 7 -21 28 -39 47 -18 19 -43 47 -56 61 -13 14 -59 65
-103 114 -44 48 -88 97 -98 109 -10 12 -46 52 -80 90 -34 38 -67 74 -72 80 -6
6 -62 69 -125 141 -99 112 -148 167 -195 219 -6 6 -50 56 -99 111 -49 55 -103
116 -120 135 -17 19 -141 159 -275 310 -134 151 -249 280 -255 285 -6 6 -42
46 -81 90 -38 44 -86 98 -106 120 -20 22 -146 164 -280 315 -134 151 -258 291
-275 310 -69 78 -220 246 -229 256 -5 6 -35 39 -65 74 -30 35 -60 68 -66 74
-5 6 -70 79 -143 161 -73 83 -141 158 -150 167 -15 16 -19 14 -71 -35z"/>
<path d="M1578 7754 c-4 -6 -54 -42 -110 -80 -57 -37 -137 -93 -178 -124 -41
-31 -136 -98 -210 -150 -74 -51 -178 -123 -230 -160 -52 -37 -115 -78 -140
-90 -41 -21 -106 -68 -155 -113 -11 -10 -39 -33 -62 -50 -42 -30 -53 -50 -33
-62 6 -3 10 -24 10 -46 0 -24 5 -39 13 -40 27 -2 116 -8 192 -14 44 -3 112 -8
150 -11 113 -8 161 -12 197 -18 53 -9 110 -17 153 -22 22 -2 58 -6 80 -9 22
-2 72 -7 110 -10 39 -3 88 -8 110 -10 22 -2 74 -7 115 -10 41 -4 86 -8 98 -10
13 -2 61 -7 107 -10 l84 -7 -20 54 c-10 29 -19 53 -19 54 0 8 -186 26 -300 28
-80 2 -155 6 -168 9 -12 3 -79 8 -148 12 -69 3 -131 8 -138 12 -6 4 -63 8
-126 9 -63 0 -135 4 -160 9 -25 4 -64 9 -88 10 -24 2 -45 5 -47 7 -12 11 226
191 358 271 84 50 163 102 177 115 40 37 96 77 245 175 187 123 195 129 183
151 -5 9 -12 29 -14 44 -3 14 -9 31 -14 37 -4 5 -10 21 -12 35 -2 15 -6 20
-10 14z"/>
<path d="M16639 7563 c19 -37 524 -516 611 -582 44 -33 128 -121 135 -141 3
-9 17 -23 32 -32 45 -26 78 -58 62 -59 -8 0 -21 -2 -29 -4 -66 -17 -274 -52
-355 -60 -33 -3 -67 -8 -75 -10 -8 -2 -44 -7 -80 -10 -36 -4 -68 -9 -72 -11
-10 -6 -203 -41 -269 -49 -30 -4 -65 -8 -79 -10 -14 -2 -52 -6 -85 -10 -33 -3
-69 -8 -80 -10 -11 -2 -23 -4 -27 -4 -24 -3 -1 -25 50 -47 31 -15 95 -44 142
-66 47 -22 164 -71 260 -109 96 -39 204 -84 240 -101 36 -16 106 -46 155 -66
50 -19 108 -48 130 -62 44 -30 245 -133 250 -128 2 2 10 27 19 57 19 64 23 59
-84 96 -41 15 -95 36 -120 47 -114 53 -198 89 -215 94 -42 11 -259 91 -295
109 -25 13 -74 36 -109 51 -78 34 -74 37 109 59 74 9 146 18 160 20 14 2 50 6
80 10 30 3 66 8 80 10 14 2 48 7 75 10 88 9 149 16 175 20 14 2 86 11 160 20
146 17 170 22 170 34 0 4 -35 35 -77 68 -43 34 -92 74 -110 89 -17 16 -44 40
-60 54 -138 120 -189 167 -271 248 -116 113 -258 244 -277 255 -21 12 -19 41
2 33 9 -4 87 -23 172 -42 86 -19 190 -44 231 -54 41 -10 95 -22 120 -25 58 -8
297 -62 330 -74 14 -5 42 -12 63 -16 33 -5 38 -4 36 12 -2 16 5 39 34 100 6
13 8 26 5 29 -6 6 -94 30 -138 37 -14 3 -68 14 -120 25 -52 12 -109 23 -127
27 -18 3 -103 21 -190 40 -87 18 -169 36 -183 39 -14 2 -63 12 -110 21 -47 9
-96 19 -110 21 -14 3 -59 11 -100 19 -41 8 -86 17 -100 19 -14 3 -49 9 -79 15
-71 14 -73 14 -62 -6z"/>
<path d="M1840 6451 c-63 -26 -124 -52 -135 -59 -29 -16 -234 -112 -241 -112
-13 0 -253 -91 -299 -113 -28 -14 -93 -38 -145 -55 -52 -16 -122 -42 -155 -57
-33 -15 -70 -31 -82 -36 l-22 -8 24 -66 c14 -36 25 -67 25 -70 0 -3 0 -9 0
-14 0 -13 244 90 395 166 58 29 161 70 320 125 17 6 57 23 90 38 33 15 85 35
115 45 30 10 75 28 100 40 38 19 72 31 198 71 10 3 9 10 -5 34 -9 16 -20 30
-24 30 -3 0 -6 8 -6 18 1 30 -15 72 -27 71 -6 0 -63 -22 -126 -48z"/>
<path d="M16165 6110 c4 -6 -5 -30 -18 -55 -14 -24 -22 -46 -19 -50 3 -3 44
-24 91 -46 77 -36 262 -134 301 -159 35 -22 192 -110 198 -110 3 0 13 -6 21
-14 9 -8 57 -35 106 -60 80 -42 97 -56 155 -127 36 -45 71 -87 78 -95 7 -8 11
-14 9 -14 -3 0 1 -28 8 -61 16 -75 6 -118 -61 -247 -66 -130 -139 -184 -269
-199 -65 -7 -253 51 -351 109 -62 36 -249 128 -261 128 -2 0 -19 11 -36 24
-18 13 -57 36 -87 51 -30 15 -68 39 -84 52 -16 13 -50 35 -76 48 -26 13 -61
36 -79 50 -30 26 -31 26 -31 6 0 -12 -4 -21 -10 -21 -5 0 -10 -11 -10 -24 0
-12 -11 -35 -25 -50 -14 -15 -23 -31 -20 -36 2 -4 38 -23 79 -43 40 -19 98
-50 127 -69 30 -19 133 -74 229 -123 160 -80 227 -118 240 -136 9 -12 104 -56
167 -77 81 -28 114 -34 199 -34 87 0 146 27 226 104 59 57 155 196 188 273 30
69 32 174 6 295 -13 57 -158 227 -246 286 -25 17 -92 52 -150 79 -58 27 -125
62 -149 79 -24 17 -66 44 -95 59 -83 46 -247 148 -295 184 -43 33 -68 43 -56
23z"/>
<path d="M2149 5982 c-24 -16 -64 -36 -89 -46 -25 -9 -75 -37 -111 -61 -36
-24 -129 -76 -205 -115 -76 -39 -164 -88 -194 -109 -30 -20 -82 -48 -115 -61
-86 -34 -240 -109 -311 -153 -34 -20 -68 -37 -75 -37 -35 -1 -41 -16 -20 -54
12 -20 21 -46 21 -57 0 -17 2 -18 21 -7 63 39 91 57 145 93 32 22 84 53 114
70 74 41 115 65 158 93 20 13 45 26 56 28 12 2 34 14 51 26 16 12 102 59 191
103 l162 82 -20 -61 c-46 -140 -94 -270 -155 -416 -36 -85 -88 -220 -115 -300
-28 -80 -58 -163 -68 -185 -10 -22 -34 -78 -54 -125 -19 -47 -44 -105 -56
-128 -34 -71 -4 -97 54 -47 15 13 45 30 65 36 62 20 144 67 186 105 37 33 168
107 256 144 20 8 43 20 50 26 22 19 89 54 101 54 6 0 50 22 97 49 48 28 129
66 181 86 52 20 101 42 110 49 8 7 30 19 48 27 37 16 40 29 12 47 -11 7 -20
21 -20 32 0 12 -6 23 -14 26 -15 6 -48 -12 -256 -135 -191 -113 -229 -134
-330 -183 -47 -23 -129 -68 -183 -101 -54 -32 -100 -57 -102 -55 -7 6 62 212
91 277 40 86 129 306 173 427 22 60 66 177 98 259 56 141 109 312 101 321 -3
2 -24 -9 -49 -24z"/>
<path d="M2818 4645 c-2 -1 -32 -5 -68 -9 -66 -6 -208 -44 -252 -67 -139 -73
-297 -220 -361 -336 -34 -62 -67 -163 -72 -225 -3 -35 -7 -78 -9 -96 -6 -56
22 -174 59 -247 66 -134 303 -342 392 -344 12 -1 23 -6 25 -11 4 -13 112 51
110 65 -1 6 -21 11 -44 13 -24 2 -61 11 -83 21 -22 10 -51 22 -65 26 -14 4
-37 16 -52 26 -14 11 -32 19 -38 19 -32 0 -156 160 -178 230 -21 64 -17 203 7
288 27 92 156 248 295 356 90 70 111 82 211 125 67 29 75 30 200 27 72 -1 141
-8 155 -14 14 -6 66 -50 117 -99 91 -88 119 -131 126 -198 2 -16 10 -50 16
-74 12 -40 11 -70 0 -110 -7 -24 18 -23 48 3 16 14 41 28 56 31 15 4 29 11 32
15 5 8 -8 43 -46 127 -10 23 -19 46 -19 51 0 24 -90 144 -154 205 -77 74 -227
170 -291 186 -44 11 -112 20 -117 16z"/>
<path d="M15206 4572 c-9 -15 -30 -45 -45 -67 l-29 -39 152 -103 c84 -56 171
-122 194 -147 23 -25 122 -106 220 -179 98 -74 184 -141 192 -148 8 -8 42 -34
75 -59 33 -25 86 -70 118 -100 80 -76 80 -76 112 -28 15 23 32 47 37 52 5 6
27 36 49 66 22 30 59 75 83 100 23 25 55 63 71 85 46 62 109 140 118 143 14 7
7 31 -13 37 -11 3 -28 17 -39 30 l-19 25 -38 -66 c-21 -36 -52 -82 -69 -102
-18 -20 -60 -80 -95 -132 -35 -52 -65 -97 -67 -99 -1 -2 -100 70 -220 160
-120 90 -251 188 -293 217 -41 29 -106 81 -145 116 -99 90 -275 232 -321 259
-6 3 -18 -6 -28 -21z"/>
<path d="M14563 3959 c-10 -10 -8 -19 23 -104 4 -11 8 -22 9 -25 1 -3 5 -12 8
-20 18 -42 126 -345 172 -485 68 -203 95 -273 156 -401 16 -33 29 -67 30 -75
0 -8 19 -72 43 -143 l43 -130 19 23 c10 13 29 27 42 32 30 11 28 24 -14 127
-20 48 -45 110 -56 137 -11 28 -26 64 -33 80 -8 17 -22 55 -31 85 -10 30 -23
59 -31 63 -15 9 -18 37 -4 37 6 0 18 13 27 30 10 16 44 48 76 71 32 24 58 45
58 48 0 4 18 17 41 31 22 14 54 44 70 68 17 23 34 42 39 42 13 0 310 -150 345
-174 16 -12 54 -36 84 -54 54 -33 55 -33 75 -13 12 11 43 40 71 64 l49 45 -44
12 c-25 6 -68 24 -95 40 -105 58 -202 108 -265 135 -36 16 -81 39 -100 50 -19
12 -84 48 -145 80 -60 32 -123 67 -140 77 -16 10 -38 18 -47 18 -10 0 -44 13
-75 29 -32 17 -80 40 -108 52 -51 22 -128 65 -222 126 -60 38 -56 36 -70 22z
m224 -270 c37 -18 141 -67 231 -110 l163 -78 -80 -80 c-44 -44 -95 -90 -114
-103 -19 -13 -35 -27 -35 -32 -1 -7 -56 -46 -67 -46 -2 0 -8 15 -14 33 -5 17
-26 77 -46 132 -79 216 -114 315 -110 315 2 0 35 -14 72 -31z"/>
<path d="M3644 3868 c-28 -29 -79 -90 -112 -134 -34 -45 -67 -88 -74 -95 -8
-8 -25 -30 -38 -49 -13 -19 -70 -84 -125 -145 -56 -60 -141 -159 -189 -220
-49 -60 -120 -145 -159 -188 -107 -118 -104 -111 -60 -150 21 -19 72 -61 113
-94 41 -34 93 -77 115 -98 22 -21 56 -48 75 -60 19 -12 55 -43 80 -68 l45 -45
35 36 36 36 -40 31 c-23 17 -59 41 -81 55 -22 13 -62 45 -90 72 -27 26 -65 58
-84 70 -18 13 -40 35 -49 51 -17 27 -16 28 20 65 21 20 56 60 79 87 23 28 45
52 49 55 4 3 39 48 78 100 39 52 80 105 91 118 l20 23 71 -67 c39 -37 83 -75
98 -85 15 -9 54 -44 87 -76 l60 -60 33 46 33 46 -28 20 c-15 11 -48 38 -73 61
-25 22 -74 61 -111 86 -36 25 -77 57 -92 70 l-27 25 21 19 c12 10 38 42 59 69
20 28 60 74 89 104 29 30 58 66 66 80 7 14 33 45 57 67 l44 42 49 -59 c28 -32
53 -59 58 -59 4 0 44 -35 90 -78 45 -42 92 -86 105 -96 l22 -19 40 43 40 43
-48 28 c-26 15 -69 49 -97 74 -27 26 -66 57 -85 70 -19 13 -63 49 -96 81 -58
56 -139 124 -146 124 -2 0 -27 -24 -54 -52z"/>
<path d="M13883 3296 c4 -53 9 -100 11 -105 3 -4 6 -88 7 -187 0 -98 5 -204
11 -234 5 -30 11 -145 12 -255 2 -179 6 -228 22 -287 9 -30 -13 -21 -119 49
-89 59 -385 264 -412 285 -5 5 -82 62 -170 128 -88 65 -184 138 -213 161 -34
27 -56 39 -62 33 -7 -7 14 -62 56 -155 81 -177 210 -499 268 -668 40 -115 154
-398 174 -429 7 -10 18 -8 50 10 49 25 49 25 -8 138 -21 41 -57 125 -80 185
-22 61 -48 124 -57 140 -9 17 -25 48 -37 70 -12 22 -32 69 -45 105 -13 36 -33
85 -43 110 -11 25 -27 61 -35 80 -8 19 -24 52 -34 73 l-19 37 68 -47 c104 -74
115 -82 242 -180 66 -51 170 -126 232 -167 62 -42 163 -116 223 -165 118 -95
137 -100 130 -33 -10 86 -17 139 -20 162 -6 39 -15 175 -20 285 -3 55 -7 123
-10 150 -3 28 -8 84 -10 125 -5 90 -13 185 -21 263 -4 38 -2 57 5 57 14 0 429
-623 516 -772 15 -27 31 -48 36 -48 5 0 24 8 42 18 82 46 107 65 100 75 -12
22 -132 172 -172 217 -22 24 -75 103 -117 175 -42 71 -128 198 -189 280 -62
83 -153 208 -201 279 -49 71 -95 131 -103 134 -12 4 -13 -12 -8 -92z"/>
<path d="M4829 3096 c-21 -29 -75 -136 -84 -166 -4 -13 -27 -56 -51 -94 -24
-39 -51 -93 -60 -121 -10 -27 -25 -63 -34 -80 -9 -16 -43 -79 -75 -140 -32
-60 -75 -135 -95 -165 -83 -126 -214 -374 -200 -378 6 -2 16 -9 23 -16 11 -11
113 -66 123 -66 2 0 4 6 4 14 0 13 70 181 92 220 5 11 44 87 86 170 41 83 104
202 139 265 35 62 63 116 63 119 0 3 22 39 48 81 43 67 162 292 162 306 0 3
-7 5 -16 5 -9 0 -38 15 -63 33 -47 34 -47 34 -62 13z"/>
<path d="M5328 2873 c-10 -3 -18 -14 -18 -25 0 -11 -16 -54 -35 -95 -19 -41
-35 -80 -35 -86 0 -6 -4 -24 -10 -41 -5 -17 -21 -69 -36 -116 -14 -47 -44
-120 -65 -162 -21 -42 -39 -89 -39 -103 0 -28 -27 -101 -90 -245 -21 -47 -59
-137 -86 -200 -26 -63 -57 -128 -67 -143 -22 -32 -19 -37 14 -39 13 -1 40 -12
60 -24 l36 -22 -2 26 c-1 15 9 51 22 81 12 29 23 59 23 66 0 12 36 107 75 200
7 17 18 55 25 85 14 64 57 184 102 285 16 39 41 102 54 140 37 107 35 103 46
75 13 -32 60 -159 104 -284 35 -99 104 -275 129 -331 22 -48 79 -208 131 -365
86 -262 96 -290 108 -290 14 0 29 36 50 115 23 90 61 196 89 252 14 27 28 66
32 86 4 21 15 47 25 60 9 12 20 38 23 57 11 64 15 75 51 150 20 41 65 152 100
245 35 94 76 195 90 225 l26 55 -38 8 c-20 4 -42 14 -48 23 -10 12 -15 7 -30
-33 -9 -26 -23 -63 -31 -82 -7 -18 -26 -83 -42 -145 -16 -61 -35 -124 -42
-141 -6 -16 -26 -70 -44 -120 -51 -137 -132 -356 -145 -390 l-12 -30 -18 35
c-25 49 -126 314 -166 435 -18 55 -74 208 -124 340 -108 283 -150 403 -150
425 0 24 -23 47 -42 43z"/>
<path d="M11630 2423 c-72 -9 -209 -51 -252 -78 -123 -78 -191 -130 -217 -168
-50 -75 -90 -155 -111 -228 -19 -61 -21 -86 -15 -178 8 -147 22 -223 51 -288
8 -17 14 -34 14 -38 0 -21 76 -157 113 -201 92 -111 200 -172 332 -188 22 -2
51 -9 65 -14 27 -9 54 -9 110 1 19 4 59 9 88 12 102 10 292 105 374 189 60 60
120 160 149 246 36 106 28 314 -17 449 -45 135 -103 238 -174 309 -83 83 -120
106 -232 143 -87 30 -194 42 -278 32z m146 -93 c19 0 56 -10 82 -22 60 -28
182 -151 212 -215 29 -61 67 -173 74 -215 3 -18 12 -62 20 -98 38 -167 38
-197 1 -320 -49 -163 -79 -206 -185 -269 -105 -62 -129 -69 -265 -66 -112 2
-124 4 -189 34 -77 36 -103 61 -176 171 -46 70 -133 262 -146 320 -13 63 -16
252 -4 297 6 27 14 59 16 71 6 30 67 149 91 179 38 45 190 128 257 139 17 3
47 8 66 13 23 5 49 3 74 -6 21 -7 54 -13 72 -13z"/>
<path d="M7075 2261 c-4 -25 -9 -80 -10 -121 -3 -68 -6 -92 -20 -170 -2 -14
-7 -41 -9 -60 -3 -19 -8 -45 -10 -56 -6 -32 -14 -83 -21 -139 -3 -27 -8 -61
-10 -75 -3 -14 -7 -47 -11 -75 -3 -27 -14 -86 -24 -131 -10 -45 -22 -105 -25
-135 -4 -30 -15 -88 -25 -129 -11 -41 -21 -99 -24 -127 l-5 -53 60 0 c33 0 69
-5 80 -10 11 -6 38 -12 62 -13 23 -1 49 -7 57 -12 19 -12 272 -14 323 -3 40 9
168 103 187 137 34 65 61 167 61 232 0 88 -24 144 -89 207 -46 45 -123 81
-178 83 -15 0 -14 2 6 11 14 5 30 11 35 12 173 41 295 172 295 314 0 24 -9 71
-20 106 -24 74 -68 116 -146 139 -27 8 -67 22 -89 32 -23 9 -70 18 -110 19
-39 1 -77 6 -85 12 -8 5 -35 10 -60 11 -24 0 -60 6 -80 11 -19 6 -51 15 -72
20 l-36 10 -7 -47z m308 -77 c83 -22 157 -56 183 -85 23 -26 55 -115 50 -139
-2 -8 -6 -26 -9 -40 -4 -14 -8 -40 -11 -58 -8 -59 -64 -124 -135 -158 -32 -16
-99 -26 -146 -23 -11 0 -52 1 -92 2 -68 1 -72 2 -68 21 2 12 7 44 10 71 13
104 16 121 22 155 3 19 7 49 9 65 1 17 12 69 24 118 l22 87 39 0 c22 0 67 -7
102 -16z m-110 -583 c15 -6 27 -8 27 -6 0 3 17 -1 38 -9 20 -8 50 -17 65 -21
39 -8 127 -97 127 -128 0 -12 4 -27 9 -32 20 -21 19 -113 -3 -186 -17 -61 -30
-82 -73 -126 -28 -30 -68 -60 -87 -68 -43 -18 -182 -20 -223 -3 -15 6 -32 12
-38 12 -48 6 -53 15 -50 82 3 35 7 69 10 74 3 5 8 46 10 90 3 45 10 101 15
124 5 24 13 68 16 98 4 29 8 60 10 68 1 8 3 22 3 32 1 13 11 16 59 13 31 -1
69 -8 85 -14z"/>
<path d="M10544 2108 c3 -51 8 -131 11 -178 3 -47 12 -128 20 -180 17 -114 24
-178 30 -285 4 -70 7 -114 20 -237 1 -16 0 -28 -2 -28 -22 0 -822 787 -921
905 -34 41 -43 47 -52 35 -10 -14 -7 -192 4 -265 3 -16 8 -59 12 -95 3 -36 9
-74 11 -85 3 -11 6 -69 8 -130 2 -97 8 -152 20 -205 2 -8 4 -140 4 -293 1
-220 4 -277 14 -270 6 4 36 10 66 13 48 4 55 8 56 28 1 12 -3 33 -10 45 -6 12
-12 51 -14 87 -1 36 -6 81 -11 100 -5 19 -11 74 -13 122 -3 47 -7 91 -11 96
-3 6 -9 55 -11 109 -3 54 -8 107 -12 118 -7 22 -13 315 -6 315 6 0 522 -521
606 -612 152 -163 360 -368 368 -362 12 7 11 71 -1 114 -6 19 -11 71 -12 115
0 44 -5 90 -9 103 -5 12 -11 65 -14 118 -3 52 -9 103 -14 112 -5 9 -9 78 -9
152 0 74 -5 159 -11 189 -6 29 -11 141 -11 247 l0 194 -56 0 -57 0 7 -92z"/>
<path d="M8688 2155 c-2 -1 -23 -5 -48 -8 -116 -14 -227 -51 -321 -107 -57
-34 -74 -51 -117 -117 -77 -122 -113 -200 -126 -278 -21 -118 -28 -194 -23
-245 10 -95 47 -240 79 -303 68 -135 250 -266 408 -293 14 -3 33 -7 43 -10 22
-7 263 -6 302 1 55 10 140 38 156 52 8 7 21 13 28 13 7 0 50 37 95 83 68 69
90 100 128 178 65 135 73 173 73 329 -1 154 -25 272 -76 373 -51 102 -166 217
-245 247 -30 11 -72 28 -92 39 -20 10 -59 24 -87 30 -47 11 -170 22 -177 16z
m172 -90 c157 -49 231 -120 290 -279 31 -80 32 -88 37 -251 5 -145 -4 -227
-35 -345 -18 -68 -57 -134 -116 -197 -63 -68 -121 -108 -183 -125 -48 -13
-206 -17 -258 -6 -84 18 -179 81 -242 160 -100 126 -124 215 -119 443 4 222
34 328 128 453 44 60 84 87 183 126 120 48 210 54 315 21z"/>
</g>
</svg>
